<?xml version="1.0" encoding="UTF-8"?>
<svg xmlns="http://www.w3.org/2000/svg" xmlns:xlink="http://www.w3.org/1999/xlink" width="42.43pt" height="61.86pt" viewBox="0 0 42.43 61.86" version="1.1">
<defs>
<clipPath id="clip1">
  <path d="M 1 46 L 9 46 L 9 61.859375 L 1 61.859375 Z M 1 46 "/>
</clipPath>
<clipPath id="clip2">
  <path d="M 7 46 L 19 46 L 19 61.859375 L 7 61.859375 Z M 7 46 "/>
</clipPath>
<clipPath id="clip3">
  <path d="M 18 46 L 32 46 L 32 61.859375 L 18 61.859375 Z M 18 46 "/>
</clipPath>
<clipPath id="clip4">
  <path d="M 32 46 L 42.429688 46 L 42.429688 61.859375 L 32 61.859375 Z M 32 46 "/>
</clipPath>
</defs>
<g id="surface1">
<path style=" stroke:none;fill-rule:nonzero;fill:rgb(27.799988%,35.299683%,65.899658%);fill-opacity:1;" d="M 27.230469 5.851563 L 21.023438 0 L 12.660156 8.242188 L 5.375 8.242188 C 5.375 8.242188 0.597656 8.957031 0.597656 14.214844 C 0.597656 19.46875 5.496094 20.066406 5.496094 20.066406 L 12.542969 20.066406 L 27.230469 5.851563 "/>
<path style=" stroke:none;fill-rule:nonzero;fill:rgb(27.799988%,35.299683%,65.899658%);fill-opacity:1;" d="M 14.574219 36.308594 L 20.78125 42.160156 L 29.144531 33.921875 L 36.429688 33.921875 C 36.429688 33.921875 41.207031 33.203125 41.207031 27.949219 C 41.207031 22.695313 36.308594 22.097656 36.308594 22.097656 L 29.261719 22.097656 L 14.574219 36.308594 "/>
<path style=" stroke:none;fill-rule:nonzero;fill:rgb(56.098938%,77.999878%,24.299622%);fill-opacity:1;" d="M 36.835938 6.875 L 29.515625 6.875 L 12.527344 22.414063 L 4.960938 22.414063 C 4.960938 22.414063 0 23.207031 0 28.664063 C 0 34.121094 5.085938 35.648438 5.085938 35.648438 L 12.402344 35.648438 L 20.710938 27.710938 L 29.394531 19.75 L 36.960938 19.75 C 36.960938 19.75 41.921875 19.191406 41.921875 13.734375 C 41.921875 8.277344 36.835938 6.875 36.835938 6.875 "/>
<g clip-path="url(#clip1)" clip-rule="nonzero">
<path style=" stroke:none;fill-rule:nonzero;fill:rgb(56.098938%,77.999878%,24.299622%);fill-opacity:1;" d="M 1.179688 46.148438 L 8.089844 46.148438 L 8.089844 49.289063 L 5.265625 49.289063 L 5.265625 52.265625 L 7.78125 52.265625 L 7.78125 55.253906 L 5.265625 55.253906 L 5.265625 61.859375 L 1.179688 61.859375 L 1.179688 46.148438 "/>
</g>
<g clip-path="url(#clip2)" clip-rule="nonzero">
<path style=" stroke:none;fill-rule:nonzero;fill:rgb(56.098938%,77.999878%,24.299622%);fill-opacity:1;" d="M 15.738281 46.148438 L 18.078125 61.859375 L 13.898438 61.859375 L 13.679688 59.035156 L 12.222656 59.035156 L 11.984375 61.859375 L 7.75 61.859375 L 9.835938 46.148438 Z M 13.566406 56.253906 C 13.363281 54.46875 13.160156 52.265625 12.957031 49.644531 C 12.542969 52.65625 12.285156 54.859375 12.175781 56.253906 L 13.566406 56.253906 "/>
</g>
<g clip-path="url(#clip3)" clip-rule="nonzero">
<path style=" stroke:none;fill-rule:nonzero;fill:rgb(56.098938%,77.999878%,24.299622%);fill-opacity:1;" d="M 31.40625 46.148438 L 31.40625 61.859375 L 27.832031 61.859375 L 27.824219 51.25 L 26.398438 61.859375 L 23.867188 61.859375 L 22.375 51.488281 L 22.367188 61.859375 L 18.792969 61.859375 L 18.792969 46.148438 L 24.074219 46.148438 C 24.226563 47.085938 24.390625 48.199219 24.558594 49.484375 L 25.140625 53.484375 L 26.082031 46.148438 L 31.40625 46.148438 "/>
</g>
<g clip-path="url(#clip4)" clip-rule="nonzero">
<path style=" stroke:none;fill-rule:nonzero;fill:rgb(56.098938%,77.999878%,24.299622%);fill-opacity:1;" d="M 40.09375 46.148438 L 42.433594 61.859375 L 38.25 61.859375 L 38.03125 59.035156 L 36.578125 59.035156 L 36.339844 61.859375 L 32.101563 61.859375 L 34.191406 46.148438 Z M 37.917969 56.253906 C 37.71875 54.46875 37.515625 52.265625 37.308594 49.644531 C 36.898438 52.65625 36.636719 54.859375 36.527344 56.253906 L 37.917969 56.253906 "/>
</g>
</g>
</svg>
